HIERARCHY
ROOT reference
{
  OFFSET 0 0 0
  CHANNELS 6 Xposition Yposition Zposition Zrotation Xrotation Yrotation
  JOINT Hips
  {
    OFFSET 350.331 86.7696 215.823
    CHANNELS 3 Zrotation Xrotation Yrotation
    JOINT RightUpLeg
    {
      OFFSET -9.29271 -1.56052 -0.0234997
      CHANNELS 3 Zrotation Xrotation Yrotation
      JOINT RightLeg
      {
        OFFSET -0.0199852 -41.8973 0.0465042
        CHANNELS 3 Zrotation Xrotation Yrotation
        JOINT RightFoot
        {
          OFFSET -0.344404 -43.5008 0.46033
          CHANNELS 3 Zrotation Xrotation Yrotation
          End Site
          {
            OFFSET 0 -7.69 17.5
          }
        }
      }
    }
    JOINT LeftUpLeg
    {
      OFFSET 9.27671 -1.61046 0.00923455
      CHANNELS 3 Zrotation Xrotation Yrotation
      JOINT LeftLeg
      {
        OFFSET 0.0572944 -41.8832 0.025786
        CHANNELS 3 Zrotation Xrotation Yrotation
        JOINT LeftFoot
        {
          OFFSET 0.630082 -40.4663 0.064708
          CHANNELS 3 Zrotation Xrotation Yrotation
          End Site
          {
            OFFSET 0 -7.69 17.5
          }
        }
      }
    }
    JOINT Spine
    {
      OFFSET 0.0336257 14.3009 0.0467062
      CHANNELS 3 Zrotation Xrotation Yrotation
      JOINT Spine1
      {
        OFFSET 0.0295985 9.72711 0.0239471
        CHANNELS 3 Zrotation Xrotation Yrotation
        JOINT Spine2
        {
          OFFSET 0.0515174 10.1206 0.00128176
          CHANNELS 3 Zrotation Xrotation Yrotation
          JOINT Spine3
          {
            OFFSET 0.0546141 9.71668 0.0122483
            CHANNELS 3 Zrotation Xrotation Yrotation
            JOINT Neck
            {
              OFFSET 0.0872189 10.3831 0.0511468
              CHANNELS 3 Zrotation Xrotation Yrotation
              JOINT Head
              {
                OFFSET 0.0544 9.47189 0.0313815
                CHANNELS 3 Zrotation Xrotation Yrotation
                End Site
                {
                  OFFSET 0 15.95 0
                }
              }
            }
            JOINT RightShoulder
            {
              OFFSET -3.15364 6.93551 0.0260198
              CHANNELS 3 Zrotation Xrotation Yrotation
              JOINT RightArm
              {
                OFFSET -12.7567 0.0626665 0.0664987
                CHANNELS 3 Zrotation Xrotation Yrotation
                JOINT RightForeArm
                {
                  OFFSET -26.5087 -0.073346 0.274032
                  CHANNELS 3 Zrotation Xrotation Yrotation
                  JOINT RightHand
                  {
                    OFFSET -26.0005 -0.196673 0.105827
                    CHANNELS 3 Zrotation Xrotation Yrotation
                    JOINT RightHandThumb1
                    {
                      OFFSET -2.48905 0.190105 3.12053
                      CHANNELS 3 Zrotation Xrotation Yrotation
                      JOINT RightHandThumb2
                      {
                        OFFSET -3.68274 0 0
                        CHANNELS 3 Zrotation Xrotation Yrotation
                        JOINT RightHandThumb3
                        {
                          OFFSET -2.55832 0 0
                          CHANNELS 3 Zrotation Xrotation Yrotation
                          End Site
                          {
                            OFFSET -2.194 0 0
                          }
                        }
                      }
                    }
                    JOINT RightInHandIndex
                    {
                      OFFSET -3.22368 0.508421 1.97842
                      CHANNELS 3 Zrotation Xrotation Yrotation
                      JOINT RightHandIndex1
                      {
                        OFFSET -5.21684 -0.091368 0.999158
                        CHANNELS 3 Zrotation Xrotation Yrotation
                        JOINT RightHandIndex2
                        {
                          OFFSET -3.61937 0 0
                          CHANNELS 3 Zrotation Xrotation Yrotation
                          JOINT RightHandIndex3
                          {
                            OFFSET -2.0521 0 0
                            CHANNELS 3 Zrotation Xrotation Yrotation
                            End Site
                            {
                              OFFSET -1.805 0 0
                            }
                          }
                        }
                      }
                    }
                    JOINT RightInHandMiddle
                    {
                      OFFSET -3.38211 0.517263 0.756737
                      CHANNELS 3 Zrotation Xrotation Yrotation
                      JOINT RightHandMiddle1
                      {
                        OFFSET -5.17411 -0.084 0.313895
                        CHANNELS 3 Zrotation Xrotation Yrotation
                        JOINT RightHandMiddle2
                        {
                          OFFSET -3.94947 0 0
                          CHANNELS 3 Zrotation Xrotation Yrotation
                          JOINT RightHandMiddle3
                          {
                            OFFSET -2.47579 0 0
                            CHANNELS 3 Zrotation Xrotation Yrotation
                            End Site
                            {
                              OFFSET -1.975 0 0
                            }
                          }
                        }
                      }
                    }
                    JOINT RightInHandRing
                    {
                      OFFSET -3.36516 0.537895 -0.128947
                      CHANNELS 3 Zrotation Xrotation Yrotation
                      JOINT RightHandRing1
                      {
                        OFFSET -4.63474 -0.022105 -0.478947
                        CHANNELS 3 Zrotation Xrotation Yrotation
                        JOINT RightHandRing2
                        {
                          OFFSET -3.44238 0 0
                          CHANNELS 3 Zrotation Xrotation Yrotation
                          JOINT RightHandRing3
                          {
                            OFFSET -2.3881 0 0
                            CHANNELS 3 Zrotation Xrotation Yrotation
                            End Site
                            {
                              OFFSET -1.857 0 0
                            }
                          }
                        }
                      }
                    }
                    JOINT RightInHandPinky
                    {
                      OFFSET -3.16105 0.469368 -1.20179
                      CHANNELS 3 Zrotation Xrotation Yrotation
                      JOINT RightHandPinky1
                      {
                        OFFSET -4.14105 -0.022105 -1.09053
                        CHANNELS 3 Zrotation Xrotation Yrotation
                        JOINT RightHandPinky2
                        {
                          OFFSET -2.75653 0 0
                          CHANNELS 3 Zrotation Xrotation Yrotation
                          JOINT RightHandPinky3
                          {
                            OFFSET -1.74189 0 0
                            CHANNELS 3 Zrotation Xrotation Yrotation
                            End Site
                            {
                              OFFSET -1.645 0 0
                            }
                          }
                        }
                      }
                    }
                  }
                }
              }
            }
            JOINT LeftShoulder
            {
              OFFSET 3.27252 6.91581 -0.0198585
              CHANNELS 3 Zrotation Xrotation Yrotation
              JOINT LeftArm
              {
                OFFSET 12.8319 -0.0466028 -0.0574599
                CHANNELS 3 Zrotation Xrotation Yrotation
                JOINT LeftForeArm
                {
                  OFFSET 26.4942 -0.039105 -0.0936
                  CHANNELS 3 Zrotation Xrotation Yrotation
                  JOINT LeftHand
                  {
                    OFFSET 26.0008 0.022674 -0.016655
                    CHANNELS 3 Zrotation Xrotation Yrotation
                    JOINT LeftHandThumb1
                    {
                      OFFSET 2.48905 0.190105 3.12053
                      CHANNELS 3 Zrotation Xrotation Yrotation
                      JOINT LeftHandThumb2
                      {
                        OFFSET 3.68274 0 0
                        CHANNELS 3 Zrotation Xrotation Yrotation
                        JOINT LeftHandThumb3
                        {
                          OFFSET 2.55832 0 0
                          CHANNELS 3 Zrotation Xrotation Yrotation
                          End Site
                          {
                            OFFSET 2.194 0 0
                          }
                        }
                      }
                    }
                    JOINT LeftInHandIndex
                    {
                      OFFSET 3.22368 0.508421 1.97842
                      CHANNELS 3 Zrotation Xrotation Yrotation
                      JOINT LeftHandIndex1
                      {
                        OFFSET 5.21684 -0.091368 0.999158
                        CHANNELS 3 Zrotation Xrotation Yrotation
                        JOINT LeftHandIndex2
                        {
                          OFFSET 3.61937 0 0
                          CHANNELS 3 Zrotation Xrotation Yrotation
                          JOINT LeftHandIndex3
                          {
                            OFFSET 2.0521 0 0
                            CHANNELS 3 Zrotation Xrotation Yrotation
                            End Site
                            {
                              OFFSET 1.805 0 0
                            }
                          }
                        }
                      }
                    }
                    JOINT LeftInHandMiddle
                    {
                      OFFSET 3.38211 0.517263 0.756737
                      CHANNELS 3 Zrotation Xrotation Yrotation
                      JOINT LeftHandMiddle1
                      {
                        OFFSET 5.17411 -0.084 0.313895
                        CHANNELS 3 Zrotation Xrotation Yrotation
                        JOINT LeftHandMiddle2
                        {
                          OFFSET 3.94947 0 0
                          CHANNELS 3 Zrotation Xrotation Yrotation
                          JOINT LeftHandMiddle3
                          {
                            OFFSET 2.47579 0 0
                            CHANNELS 3 Zrotation Xrotation Yrotation
                            End Site
                            {
                              OFFSET 1.975 0 0
                            }
                          }
                        }
                      }
                    }
                    JOINT LeftInHandRing
                    {
                      OFFSET 3.36516 0.537895 -0.128947
                      CHANNELS 3 Zrotation Xrotation Yrotation
                      JOINT LeftHandRing1
                      {
                        OFFSET 4.63474 -0.022105 -0.478947
                        CHANNELS 3 Zrotation Xrotation Yrotation
                        JOINT LeftHandRing2
                        {
                          OFFSET 3.44238 0 0
                          CHANNELS 3 Zrotation Xrotation Yrotation
                          JOINT LeftHandRing3
                          {
                            OFFSET 2.3881 0 0
                            CHANNELS 3 Zrotation Xrotation Yrotation
                            End Site
                            {
                              OFFSET 1.857 0 0
                            }
                          }
                        }
                      }
                    }
                    JOINT LeftInHandPinky
                    {
                      OFFSET 3.16105 0.469368 -1.20179
                      CHANNELS 3 Zrotation Xrotation Yrotation
                      JOINT LeftHandPinky1
                      {
                        OFFSET 4.14105 -0.022105 -1.09053
                        CHANNELS 3 Zrotation Xrotation Yrotation
                        JOINT LeftHandPinky2
                        {
                          OFFSET 2.75653 0 0
                          CHANNELS 3 Zrotation Xrotation Yrotation
                          JOINT LeftHandPinky3
                          {
                            OFFSET 1.74189 0 0
                            CHANNELS 3 Zrotation Xrotation Yrotation
                            End Site
                            {
                              OFFSET 1.645 0 0
                            }
                          }
                        }
                      }
                    }
                  }
                }
              }
            }
          }
        }
      }
    }
  }
}
MOTION
Frames: 2
Frame Time: 0.00833333
9.000000000000000000e+02 0.000000000000000000e+00 0.000000000000000000e+00 0.000000000000000000e+00 0.000000000000000000e+00 0.000000000000000000e+00 1.708500917905397598e+00 2.371937305734341528e-01 -4.094106242977942145e+01 2.253971609808099430e+01 -1.041939976854798999e+01 1.987707771575015059e+01 -1.051714125357098073e+00 -5.415351542109515526e-01 8.869065999831116542e+00 -6.317868714683110287e-01 3.756176880965342413e+00 1.156315346009473721e+01 1.888221601136075378e+01 7.043520386528262733e+00 1.673683258493512582e+01 -1.104388739004272857e+01 7.138981393536606213e+00 1.069753894379192616e+01 5.502519692463605949e+00 -7.581306350349056977e+00 1.731219133876052041e+01 2.573438347038811358e+00 -3.952497385807006935e+00 -2.059767644379964580e+01 5.261333307226528921e-01 -1.181204805552076742e+00 -5.210465395391296717e+00 8.712285367986306595e-01 -1.934541595444479123e+00 -7.702724106738594756e+00 -3.852300287888070773e-01 2.022128874679245680e-01 2.007348370521683023e+00 -1.410831710112922188e+00 8.730569746474037274e-01 2.645379771180553874e+01 -7.277758427577518674e+00 2.026002532081398577e+00 2.391361681381092197e+01 6.380519602419111536e+00 1.048780413886738749e+01 -1.413904246355763128e+01 2.162860161539487791e+00 -3.148886456764736508e+01 -2.876510168368791653e+01 1.654447038291818117e+01 1.178852190513764331e+00 4.148212250476191798e+01 -5.316442007713677143e+00 -1.079067700488004178e+01 8.287757289274416905e+00 0.000000000000000000e+00 0.000000000000000000e+00 0.000000000000000000e+00 4.168222631193223151e-15 -1.146390894190891908e-15 0.000000000000000000e+00 5.962048797791402592e-16 7.454709895546798165e-16 0.000000000000000000e+00 6.740417103931301053e-16 1.127282890045356071e-15 -9.887269056742833554e-16 0.000000000000000000e+00 0.000000000000000000e+00 0.000000000000000000e+00 0.000000000000000000e+00 8.784393066930191157e-16 4.458462689381251213e-15 0.000000000000000000e+00 -1.421603547286773862e-17 -1.543739438635807668e-15 6.740417103931301053e-16 1.127282890045356071e-15 -9.887269056742833554e-16 0.000000000000000000e+00 -1.032980823722268111e-15 -5.495816000650781220e-16 0.000000000000000000e+00 -1.806140927868964080e-15 9.659183239768665664e-16 0.000000000000000000e+00 8.967902395604293785e-17 -2.514534215749023320e-15 6.740417103931301053e-16 1.127282890045356071e-15 -9.887269056742833554e-16 0.000000000000000000e+00 0.000000000000000000e+00 0.000000000000000000e+00 0.000000000000000000e+00 1.147792861651339235e-15 -1.674274035941966581e-16 0.000000000000000000e+00 3.681178481078902943e-16 -1.885774704737642823e-16 6.740417103931301053e-16 1.127282890045356071e-15 -9.887269056742833554e-16 0.000000000000000000e+00 0.000000000000000000e+00 0.000000000000000000e+00 0.000000000000000000e+00 2.323596960059000076e-16 4.430583098154638724e-15 0.000000000000000000e+00 -7.824604426832329796e-16 4.265924588838105772e-16 1.434621061951412813e+00 -7.337270607217037943e-01 -1.335948076141258056e+01 2.632217052179094097e+01 7.188848944601037516e+00 -2.851615135412826518e+01 2.461953117957022741e+01 2.145886933217155601e+01 3.694847705128629656e+01 -6.247946468612713744e+00 -3.122979868895945921e-01 2.349065545672057720e+00 0.000000000000000000e+00 0.000000000000000000e+00 0.000000000000000000e+00 -1.296851342075143099e-15 1.162521308660603143e-16 0.000000000000000000e+00 9.776019993779281872e-17 -7.516594665431673048e-16 0.000000000000000000e+00 -4.501632528797236283e-16 2.611822933238295880e-15 -5.645871874651449533e-16 0.000000000000000000e+00 0.000000000000000000e+00 0.000000000000000000e+00 0.000000000000000000e+00 -2.450065213829410551e-15 -7.000266242957193548e-16 0.000000000000000000e+00 1.363254819177624275e-15 8.632479609821293350e-17 -4.501632528797236283e-16 2.611822933238295880e-15 -5.645871874651449533e-16 0.000000000000000000e+00 1.566363048786433856e-15 -1.753844099524058097e-15 0.000000000000000000e+00 -8.328939582300285350e-16 -1.051842905006616786e-15 0.000000000000000000e+00 7.682020259873067243e-16 1.567299472518723952e-15 -4.501632528797236283e-16 2.611822933238295880e-15 -5.645871874651449533e-16 0.000000000000000000e+00 0.000000000000000000e+00 0.000000000000000000e+00 0.000000000000000000e+00 -4.513802504864593647e-16 -1.508156534702926687e-15 0.000000000000000000e+00 -1.977245093515696309e-15 -2.307798688982042044e-15 -4.501632528797236283e-16 2.611822933238295880e-15 -5.645871874651449533e-16 0.000000000000000000e+00 0.000000000000000000e+00 0.000000000000000000e+00 0.000000000000000000e+00 -4.354378459341485489e-16 3.097486923846512922e-15 0.000000000000000000e+00 -1.713680512790172799e-15 -2.487954123496299153e-15
9.000000000000000000e+02 0.000000000000000000e+00 0.000000000000000000e+00 0.000000000000000000e+00 0.000000000000000000e+00 0.000000000000000000e+00 1.719125632847924079e+00 3.139868946875258304e-01 -4.103191272768651032e+01 2.238518392161583748e+01 -1.054877982308688011e+01 1.974426186505902692e+01 -1.005713594341151484e+00 -4.778163538647765551e-01 8.856017150292556650e+00 -5.730386584015051410e-01 3.681534770012546254e+00 1.154201205443364842e+01 1.894901564528982973e+01 6.859535252392434224e+00 1.675436499939644364e+01 -1.097413580603492456e+01 7.164945058636721598e+00 1.063296020887114857e+01 5.533561377180681085e+00 -7.542418991813542029e+00 1.740579364605883228e+01 2.598273679277077974e+00 -3.872831486615605723e+00 -2.079870437917020709e+01 5.336233812759801909e-01 -1.161621724234617403e+00 -5.263147979500111262e+00 8.834001034382220618e-01 -1.902601661266211330e+00 -7.771207838408756174e+00 -3.822038221827022686e-01 2.074516538782005537e-01 2.006382444225796480e+00 -1.413671417808524788e+00 9.178850409785594966e-01 2.667870791041250911e+01 -7.214816449440569102e+00 1.995493593848236547e+00 2.379045990829407131e+01 6.474320974674736995e+00 1.049546605482580830e+01 -1.418114189275207160e+01 2.384308619816574826e+00 -3.149659107811325143e+01 -2.897007247253114670e+01 1.678287081664215918e+01 9.996715922133325716e-01 4.108245759433870603e+01 -5.362269502140412314e+00 -1.098502522022667804e+01 8.256227948902376212e+00 0.000000000000000000e+00 0.000000000000000000e+00 0.000000000000000000e+00 4.132392825153422764e-15 -1.098768885889307854e-15 0.000000000000000000e+00 5.950815969356469427e-16 8.054200674290387746e-16 0.000000000000000000e+00 6.691229243370537003e-16 1.093181747654042276e-15 -1.006742732910042766e-15 0.000000000000000000e+00 0.000000000000000000e+00 0.000000000000000000e+00 0.000000000000000000e+00 8.708741669582945688e-16 4.386600988716825978e-15 0.000000000000000000e+00 -2.097496131732689833e-17 -1.606904764783638991e-15 6.691229243370537003e-16 1.093181747654042276e-15 -1.006742732910042766e-15 0.000000000000000000e+00 -1.050702602658892185e-15 -5.239971382258274258e-16 0.000000000000000000e+00 -1.853077047686847886e-15 9.315770252957768750e-16 0.000000000000000000e+00 9.136325876261736131e-17 -2.588712385929253867e-15 6.691229243370537003e-16 1.093181747654042276e-15 -1.006742732910042766e-15 0.000000000000000000e+00 0.000000000000000000e+00 0.000000000000000000e+00 0.000000000000000000e+00 1.159712445951880607e-15 -1.223137575193798457e-16 0.000000000000000000e+00 3.246495980661378451e-16 -2.359835947942436626e-16 6.691229243370537003e-16 1.093181747654042276e-15 -1.006742732910042766e-15 0.000000000000000000e+00 0.000000000000000000e+00 0.000000000000000000e+00 0.000000000000000000e+00 2.221441418682804240e-16 4.390924636061915561e-15 0.000000000000000000e+00 -7.793294726453053987e-16 4.378914741623663716e-16 1.611230819892154997e+00 -7.606547355067467819e-01 -1.333834059308983200e+01 2.651790875986545970e+01 7.407551759691282989e+00 -2.859924641060224459e+01 2.432567274254066803e+01 2.137830767311093538e+01 3.754168364451165019e+01 -6.254916184488944708e+00 -4.082575058930771883e-01 2.481937105069111471e+00 0.000000000000000000e+00 0.000000000000000000e+00 0.000000000000000000e+00 -1.332656458639287801e-15 8.763444721949948348e-17 0.000000000000000000e+00 6.794261721467243489e-17 -8.041227762167525027e-16 0.000000000000000000e+00 -4.736219684182542426e-16 2.662424324120651219e-15 -5.717830980544113739e-16 0.000000000000000000e+00 0.000000000000000000e+00 0.000000000000000000e+00 0.000000000000000000e+00 -2.457951540196031297e-15 -7.092300414398208206e-16 0.000000000000000000e+00 1.382313789042705144e-15 1.065629216999267844e-16 -4.736219684182542426e-16 2.662424324120651219e-15 -5.717830980544113739e-16 0.000000000000000000e+00 1.598960443126118281e-15 -1.788887387406407414e-15 0.000000000000000000e+00 -8.604994082033367358e-16 -9.810574754279383764e-16 0.000000000000000000e+00 7.780492109348389606e-16 1.588760751021969567e-15 -4.736219684182542426e-16 2.662424324120651219e-15 -5.717830980544113739e-16 0.000000000000000000e+00 0.000000000000000000e+00 0.000000000000000000e+00 0.000000000000000000e+00 -4.821686550387071851e-16 -1.549499020681288295e-15 0.000000000000000000e+00 -1.998743651577076469e-15 -2.239176188750448001e-15 -4.736219684182542426e-16 2.662424324120651219e-15 -5.717830980544113739e-16 0.000000000000000000e+00 0.000000000000000000e+00 0.000000000000000000e+00 0.000000000000000000e+00 -4.400985375621816249e-16 3.114835505379367514e-15 0.000000000000000000e+00 -1.711122196197358014e-15 -2.457880193373524987e-15
